<mxfile host="app.diagrams.net" modified="2024-01-15T11:53:05.568Z" agent="Mozilla/5.0 (Windows NT 10.0; Win64; x64) AppleWebKit/537.36 (KHTML, like Gecko) Chrome/119.0.0.0 Safari/537.36 OPR/105.0.0.0" version="22.1.18" etag="A7Voc2iRaeM5-D-Qj4P8" type="github">
  <diagram name="PÃ¡gina-1" id="kv6eIvWk4Gff51TuWEJR">
    <mxGraphModel>
      <root>
        <mxCell id="0" />
        <mxCell id="1" parent="0" />
      </root>
    </mxGraphModel>
  </diagram>
</mxfile>
